# xmcd
#
# Track frame offsets:
# 150
# 74162
# 115303
# 237206
# 307351
# 330419
#
# Disc length: 4746 seconds
#
#
# Revision: 0
# Processed by: cddbd v1.5.2PL0 Copyright (c) Steve Scherf et al.
# Submitted via: FreeRIP 2.951 
#
DISCID=59128806
DTITLE=Ivan Taborda - Baile do seu amaranto e outros causos - 
DYEAR=1900
DGENRE=
TTITLE0=01 Baile do seu Amaranto
TTITLE1=02 Baile do Abílio Manco
TTITLE2=03 Piadas e humurismo
TTITLE3=04 As gauchadas do seu Amaranto
TTITLE4=05 A fina flor da grossura
TTITLE5=06 Jogador na igreja
EXTD=
EXTT0=
EXTT1=
EXTT2=
EXTT3=
EXTT4=
EXTT5=
PLAYORDER=
